<svg width="11" height="12" viewBox="0 0 11 12" fill="none" xmlns="http://www.w3.org/2000/svg">
<path d="M7.20552 3.16941C7.47406 2.90087 7.83828 2.75 8.21806 2.75C8.59784 2.75 8.96207 2.90087 9.23061 3.16941C9.49915 3.43796 9.65002 3.80218 9.65002 4.18196C9.65002 4.56174 9.49915 4.92596 9.23061 5.19451L6.8495 7.57561C6.58096 7.84416 6.21674 7.99502 5.83696 7.99502C5.45718 7.99502 5.09295 7.84416 4.82441 7.57561C4.55587 7.30707 4.405 6.94284 4.405 6.56306C4.405 6.18329 4.55587 5.81906 4.82441 5.55052L5.18042 5.19451" stroke="white" stroke-width="0.9" stroke-linecap="round" stroke-linejoin="round"/>
<path d="M3.99449 8.40544C3.86152 8.53841 3.70367 8.64389 3.52993 8.71585C3.3562 8.78782 3.16999 8.82486 2.98195 8.82486C2.7939 8.82486 2.60769 8.78782 2.43396 8.71585C2.26023 8.64389 2.10237 8.53841 1.9694 8.40544C1.70085 8.1369 1.54999 7.77268 1.54999 7.3929C1.54999 7.01312 1.70085 6.64889 1.9694 6.38035L4.3505 3.99924C4.61905 3.7307 4.98327 3.57983 5.36305 3.57983C5.74283 3.57983 6.10705 3.7307 6.3756 3.99924C6.64414 4.26779 6.79501 4.63201 6.79501 5.01179C6.79501 5.39157 6.64414 5.75579 6.3756 6.02434L6.00501 6.39493" stroke="white" stroke-width="0.9" stroke-linecap="round" stroke-linejoin="round"/>
</svg>
